<svg width="100" height="100" viewBox="0 0 100 100" fill="none" xmlns="http://www.w3.org/2000/svg">
<path d="M49.9993 20.1753L45.5181 15.5691C34.9993 4.75655 15.7118 8.4878 8.74934 22.0816C5.48059 28.4753 4.74309 37.7066 10.7118 49.4878C16.4618 60.8316 28.4243 74.4191 49.9993 89.2191C71.5743 74.4191 83.5306 60.8316 89.2868 49.4878C95.2556 37.7003 94.5243 28.4753 91.2493 22.0816C84.2868 8.4878 64.9993 4.7503 54.4806 15.5628L49.9993 20.1753ZM49.9993 96.7503C-45.8319 33.4253 20.4931 -15.9997 48.8993 10.1441C49.2743 10.4899 49.641 10.8461 49.9993 11.2128C50.3514 10.8438 50.7184 10.4894 51.0993 10.1503C79.4993 -16.0122 145.831 33.4191 49.9993 96.7503Z" fill="black"/>
</svg>
