<svg width="18" height="18" viewBox="0 0 18 18" fill="none" xmlns="http://www.w3.org/2000/svg">
<g clip-path="url(#clip0_9_2084)">
<path d="M16.4348 1.1736C16.1884 0.927125 15.8541 0.788654 15.5055 0.788653C15.1569 0.788654 14.8226 0.927125 14.5761 1.1736L9.00004 6.7497L3.42394 1.1736C3.17746 0.927125 2.84317 0.788654 2.49459 0.788654C2.14602 0.788654 1.81172 0.927125 1.56524 1.1736C1.31877 1.42008 1.18029 1.75438 1.18029 2.10295C1.18029 2.45153 1.31877 2.78582 1.56524 3.0323L7.14134 8.6084L1.56524 14.1845C1.31877 14.431 1.18029 14.7653 1.18029 15.1138C1.18029 15.4624 1.31877 15.7967 1.56524 16.0432C1.81172 16.2897 2.14602 16.4281 2.49459 16.4281C2.84317 16.4281 3.17746 16.2897 3.42394 16.0432L9.00004 10.4671L14.5761 16.0432C14.8226 16.2897 15.1569 16.4281 15.5055 16.4281C15.8541 16.4281 16.1884 16.2897 16.4348 16.0432C16.6813 15.7967 16.8198 15.4624 16.8198 15.1138C16.8198 14.7653 16.6813 14.431 16.4348 14.1845L10.8587 8.6084L16.4348 3.0323C16.6813 2.78582 16.8198 2.45153 16.8198 2.10295C16.8198 1.75438 16.6813 1.42008 16.4348 1.1736Z" fill="black"/>
</g>
<defs>
<clipPath id="clip0_9_2084">
<rect width="18" height="18" fill="white" transform="matrix(-1 0 0 1 18 0)"/>
</clipPath>
</defs>
</svg>
