<svg width="100" height="100" viewBox="0 0 100 100" fill="none" xmlns="http://www.w3.org/2000/svg">
<path d="M55.1658 3.91599C53.9282 2.68918 52.2499 2 50.5 2C48.7501 2 47.0718 2.68918 45.8342 3.91599L1.96769 47.4073C1.66089 47.7115 1.41753 48.0727 1.25149 48.4702C1.08546 48.8676 1 49.2937 1 49.7239C1 50.1541 1.08546 50.5801 1.25149 50.9776C1.41753 51.3751 1.66089 51.7362 1.96769 52.0405C2.58729 52.6548 3.42764 53 4.30389 53C4.73776 53 5.16739 52.9153 5.56823 52.7506C5.96908 52.586 6.3333 52.3447 6.64009 52.0405L50.5 8.54259L94.3599 52.0405C94.9795 52.6548 95.8199 53 96.6961 53C97.5724 53 98.4127 52.6548 99.0323 52.0405C99.6519 51.4261 100 50.5928 100 49.7239C100 48.855 99.6519 48.0217 99.0323 47.4073L83.4972 32.0093V10.46C83.4972 9.59219 83.1496 8.75994 82.5308 8.14633C81.9119 7.53271 81.0726 7.18798 80.1975 7.18798H73.5981C72.7229 7.18798 71.8836 7.53271 71.2648 8.14633C70.646 8.75994 70.2983 9.59219 70.2983 10.46V18.9213L55.1658 3.91599Z" fill="#0088FF"/>
<path d="M50.5 15L90 54.9761V83.006C90 85.6566 88.9596 88.1986 87.1077 90.0728C85.2558 91.9471 82.744 93 80.125 93H20.875C18.256 93 15.7442 91.9471 13.8923 90.0728C12.0404 88.1986 11 85.6566 11 83.006V54.9761L50.5 15Z" fill="#0088FF"/>
</svg>
