<svg width="100" height="100" viewBox="0 0 100 100" fill="none" xmlns="http://www.w3.org/2000/svg">
<path d="M55.1658 3.9317C53.9282 2.69483 52.2499 2 50.5 2C48.7501 2 47.0718 2.69483 45.8342 3.9317L1.96769 47.7797C1.66089 48.0864 1.41753 48.4505 1.25149 48.8513C1.08546 49.252 1 49.6815 1 50.1153C1 50.549 1.08546 50.9785 1.25149 51.3793C1.41753 51.78 1.66089 52.1441 1.96769 52.4508C2.58729 53.0703 3.42764 53.4183 4.30389 53.4183C4.73776 53.4183 5.16739 53.3328 5.56823 53.1668C5.96908 53.0008 6.3333 52.7575 6.64009 52.4508L10.9033 48.1822V83.1035C10.9033 85.7282 11.9463 88.2454 13.8027 90.1014C15.6592 91.9573 18.1771 93 20.8025 93H80.1975C82.8229 93 85.3408 91.9573 87.1973 90.1014C89.0537 88.2454 90.0967 85.7282 90.0967 83.1035V48.1822L94.3599 52.4508C94.9795 53.0703 95.8199 53.4183 96.6961 53.4183C97.5724 53.4183 98.4127 53.0703 99.0323 52.4508C99.6519 51.8314 100 50.9913 100 50.1153C100 49.2393 99.6519 48.3991 99.0323 47.7797L83.4972 32.2554V10.5294C83.4972 9.65445 83.1496 8.81538 82.5308 8.19673C81.9119 7.57808 81.0726 7.23053 80.1975 7.23053H73.5981C72.7229 7.23053 71.8836 7.57808 71.2648 8.19673C70.646 8.81538 70.2983 9.65445 70.2983 10.5294V19.0601L55.1658 3.9317ZM83.4972 41.5845V83.1035C83.4972 83.9784 83.1496 84.8175 82.5308 85.4361C81.9119 86.0548 81.0726 86.4023 80.1975 86.4023H20.8025C19.9274 86.4023 19.0881 86.0548 18.4692 85.4361C17.8504 84.8175 17.5028 83.9784 17.5028 83.1035V41.5845L50.5 8.59624L83.4972 41.5845Z" fill="black"/>
</svg>
