<svg width="33" height="33" viewBox="0 0 33 33" fill="none" xmlns="http://www.w3.org/2000/svg">
<g clip-path="url(#clip0_5_45)">
<path d="M24.2178 21.3348C26.2149 18.6096 27.1094 15.2308 26.7223 11.8745C26.3352 8.51806 24.6951 5.43159 22.13 3.23254C19.565 1.03348 16.2643 -0.115988 12.8881 0.0141001C9.51199 0.144188 6.30947 1.54424 3.92126 3.93415C1.53306 6.32406 0.135303 9.52759 0.00763035 12.9038C-0.120042 16.28 1.03179 19.58 3.23268 22.1434C5.43357 24.7069 8.52121 26.3448 11.8779 26.7295C15.2345 27.1142 18.6127 26.2173 21.3365 24.2182H21.3344C21.3949 24.3007 21.4623 24.3798 21.5365 24.4554L29.4771 32.396C29.8639 32.783 30.3885 33.0006 30.9356 33.0007C31.4828 33.0009 32.0075 32.7838 32.3946 32.3971C32.7816 32.0103 32.9991 31.4857 32.9993 30.9386C32.9995 30.3914 32.7823 29.8667 32.3956 29.4796L24.455 21.539C24.3813 21.4643 24.302 21.3974 24.2178 21.3348ZM24.7499 13.4066C24.7499 14.8963 24.4565 16.3714 23.8864 17.7476C23.3163 19.1239 22.4808 20.3745 21.4274 21.4278C20.374 22.4812 19.1235 23.3168 17.7472 23.8868C16.3709 24.4569 14.8958 24.7503 13.4061 24.7503C11.9165 24.7503 10.4414 24.4569 9.06508 23.8868C7.6888 23.3168 6.43827 22.4812 5.38491 21.4278C4.33154 20.3745 3.49597 19.1239 2.92589 17.7476C2.35581 16.3714 2.0624 14.8963 2.0624 13.4066C2.0624 10.398 3.25754 7.5127 5.38491 5.38534C7.51227 3.25797 10.3976 2.06283 13.4061 2.06283C16.4147 2.06283 19.3 3.25797 21.4274 5.38534C23.5548 7.5127 24.7499 10.398 24.7499 13.4066Z" fill="#0088FF"/>
</g>
<defs>
<clipPath id="clip0_5_45">
<rect width="33" height="33" fill="white"/>
</clipPath>
</defs>
</svg>
