<svg width="268" height="275" viewBox="0 0 268 275" fill="none" xmlns="http://www.w3.org/2000/svg">
<g clip-path="url(#clip0_246_1024)">
<path d="M136.688 186.355V165.848C142.43 165.848 147.306 164.936 151.316 163.113C155.327 161.199 158.38 158.602 160.477 155.32C162.573 151.948 163.621 148.12 163.621 143.836C163.621 141.01 163.029 138.458 161.844 136.18C160.659 133.901 158.699 131.805 155.965 129.891C153.23 127.885 149.493 125.926 144.754 124.012C140.105 122.098 134.227 120.047 127.117 117.859C116.818 114.943 107.566 111.844 99.3633 108.562C91.1602 105.19 84.1875 101.271 78.4453 96.8047C72.7031 92.2474 68.2826 86.8698 65.1836 80.6719C62.1758 74.3828 60.6719 66.8177 60.6719 57.9766C60.6719 49.9557 62.3581 42.7096 65.7305 36.2383C69.194 29.7669 74.1159 24.207 80.4961 19.5586C86.9674 14.9102 94.6693 11.3555 103.602 8.89453C112.534 6.43359 122.514 5.20312 133.543 5.20312C148.582 5.20312 161.525 7.4362 172.371 11.9023C183.309 16.3685 191.694 22.931 197.527 31.5898C203.361 40.2487 206.277 50.8216 206.277 63.3086H160.203C160.203 59.0247 159.201 55.1966 157.195 51.8242C155.281 48.4518 152.365 45.763 148.445 43.7578C144.526 41.7526 139.559 40.75 133.543 40.75C127.254 40.75 122.15 41.5247 118.23 43.0742C114.311 44.5326 111.44 46.5378 109.617 49.0898C107.794 51.6419 106.883 54.513 106.883 57.7031C106.883 60.5286 107.384 63.0352 108.387 65.2227C109.389 67.319 111.167 69.2331 113.719 70.9648C116.271 72.6055 119.871 74.2461 124.52 75.8867C129.168 77.5273 135.138 79.3047 142.43 81.2188C153.003 83.862 162.391 86.8242 170.594 90.1055C178.888 93.3867 185.861 97.2604 191.512 101.727C197.254 106.102 201.583 111.342 204.5 117.449C207.508 123.465 209.012 130.529 209.012 138.641C209.012 146.57 207.28 153.543 203.816 159.559C200.444 165.483 195.568 170.451 189.188 174.461C182.898 178.38 175.288 181.342 166.355 183.348C157.514 185.353 147.625 186.355 136.688 186.355ZM128.484 86.9609V107.879C122.833 107.879 118.23 108.836 114.676 110.75C111.121 112.573 108.523 115.079 106.883 118.27C105.242 121.46 104.422 125.151 104.422 129.344C104.422 132.534 104.923 135.314 105.926 137.684C106.928 139.962 108.706 142.059 111.258 143.973C113.81 145.796 117.41 147.618 122.059 149.441C126.707 151.264 132.677 153.315 139.969 155.594C150.633 158.419 160.112 161.473 168.406 164.754C176.701 168.035 183.673 171.909 189.324 176.375C195.066 180.841 199.396 186.264 202.312 192.645C205.229 198.934 206.688 206.499 206.688 215.34C206.688 223.634 204.956 230.971 201.492 237.352C198.12 243.823 193.243 249.201 186.863 253.484C180.483 257.859 172.827 261.141 163.895 263.328C155.053 265.607 145.164 266.746 134.227 266.746C124.747 266.746 115.496 265.835 106.473 264.012C97.4492 262.189 89.3372 259.135 82.1367 254.852C74.9362 250.659 69.194 244.917 64.9102 237.625C60.6263 230.424 58.4844 221.355 58.4844 210.418H104.559C104.559 214.793 105.379 218.348 107.02 221.082C108.751 223.816 111.03 225.867 113.855 227.234C116.681 228.693 119.871 229.695 123.426 230.242C126.98 230.789 130.581 231.062 134.227 231.062C140.06 231.062 144.891 230.424 148.719 229.148C152.638 227.964 155.6 226.186 157.605 223.816C159.611 221.538 160.613 218.758 160.613 215.477C160.613 212.924 160.021 210.646 158.836 208.641C157.742 206.635 155.828 204.767 153.094 203.035C150.451 201.212 146.805 199.435 142.156 197.703C137.508 195.971 131.674 194.103 124.656 192.098C114.357 189.363 105.105 186.355 96.9023 183.074C88.6992 179.793 81.7266 175.965 75.9844 171.59C70.2422 167.215 65.8672 162.02 62.8594 156.004C59.8516 149.988 58.3477 142.924 58.3477 134.812C58.3477 127.065 59.9883 120.229 63.2695 114.305C66.6419 108.38 71.3815 103.413 77.4883 99.4023C83.6862 95.3008 91.069 92.2018 99.6367 90.1055C108.296 88.0091 117.911 86.9609 128.484 86.9609Z" fill="url(#paint0_linear_246_1024)"/>
</g>
<defs>
<linearGradient id="paint0_linear_246_1024" x1="134.5" y1="-59" x2="134.5" y2="281" gradientUnits="userSpaceOnUse">
<stop stop-color="#B3DBFF"/>
<stop offset="1" stop-color="#0088FF"/>
</linearGradient>
<clipPath id="clip0_246_1024">
<rect width="268" height="275" fill="white"/>
</clipPath>
</defs>
</svg>
