<svg width="100" height="100" viewBox="0 0 100 100" fill="none" xmlns="http://www.w3.org/2000/svg">
<g clip-path="url(#clip0_9_1529)">
<path d="M59.375 16.7C59.375 17.5289 59.7043 18.3237 60.2903 18.9098C60.8764 19.4958 61.6712 19.825 62.5 19.825C63.3288 19.825 64.1237 19.4958 64.7097 18.9098C65.2958 18.3237 65.625 17.5289 65.625 16.7V5.2688C65.625 4.44 65.2958 3.64514 64.7097 3.05909C64.1237 2.47304 63.3288 2.1438 62.5 2.1438C61.6712 2.1438 60.8764 2.47304 60.2903 3.05909C59.7043 3.64514 59.375 4.44 59.375 5.2688V16.7ZM87.5 16.9188C88.0693 16.3294 88.3842 15.54 88.3771 14.7207C88.37 13.9013 88.0413 13.1175 87.4619 12.5381C86.8825 11.9587 86.0988 11.6301 85.2794 11.6229C84.46 11.6158 83.6706 11.9308 83.0813 12.5L75 20.5813C74.7015 20.8696 74.4635 21.2144 74.2997 21.5957C74.1359 21.9769 74.0497 22.387 74.0461 22.8019C74.0425 23.2169 74.1216 23.6284 74.2787 24.0124C74.4358 24.3965 74.6679 24.7454 74.9613 25.0388C75.2547 25.3322 75.6036 25.5642 75.9877 25.7214C76.3717 25.8785 76.7832 25.9576 77.1981 25.954C77.6131 25.9503 78.0231 25.8641 78.4044 25.7004C78.7857 25.5366 79.1305 25.2985 79.4188 25L87.5 16.9188ZM45.5813 25C45.8695 25.2985 46.2144 25.5366 46.5956 25.7004C46.9769 25.8641 47.387 25.9503 47.8019 25.954C48.2168 25.9576 48.6283 25.8785 49.0124 25.7214C49.3964 25.5642 49.7453 25.3322 50.0388 25.0388C50.3322 24.7454 50.5642 24.3965 50.7213 24.0124C50.8785 23.6284 50.9575 23.2169 50.9539 22.8019C50.9503 22.387 50.8641 21.9769 50.7003 21.5957C50.5366 21.2144 50.2985 20.8696 50 20.5813L41.9188 12.5C41.3294 11.9308 40.54 11.6158 39.7206 11.6229C38.9013 11.6301 38.1175 11.9587 37.5381 12.5381C36.9587 13.1175 36.63 13.9013 36.6229 14.7207C36.6158 15.54 36.9308 16.3294 37.5 16.9188L45.5813 25ZM41.7 40.625C42.5288 40.625 43.3237 40.2958 43.9097 39.7098C44.4958 39.1237 44.825 38.3288 44.825 37.5C44.825 36.6712 44.4958 35.8764 43.9097 35.2903C43.3237 34.7043 42.5288 34.375 41.7 34.375H30.2688C29.44 34.375 28.6451 34.7043 28.0591 35.2903C27.473 35.8764 27.1438 36.6712 27.1438 37.5C27.1438 38.3288 27.473 39.1237 28.0591 39.7098C28.6451 40.2958 29.44 40.625 30.2688 40.625H41.7ZM94.7313 40.625C95.5601 40.625 96.3549 40.2958 96.941 39.7098C97.527 39.1237 97.8563 38.3288 97.8563 37.5C97.8563 36.6712 97.527 35.8764 96.941 35.2903C96.3549 34.7043 95.5601 34.375 94.7313 34.375H83.3C82.4712 34.375 81.6764 34.7043 81.0903 35.2903C80.5042 35.8764 80.175 36.6712 80.175 37.5C80.175 38.3288 80.5042 39.1237 81.0903 39.7098C81.6764 40.2958 82.4712 40.625 83.3 40.625H94.7313ZM83.0813 62.5C83.3695 62.7985 83.7144 63.0366 84.0956 63.2004C84.4769 63.3641 84.8869 63.4503 85.3019 63.454C85.7168 63.4576 86.1283 63.3785 86.5124 63.2214C86.8964 63.0642 87.2453 62.8322 87.5387 62.5388C87.8322 62.2454 88.0642 61.8965 88.2213 61.5124C88.3785 61.1284 88.4575 60.7169 88.4539 60.3019C88.4503 59.887 88.3641 59.4769 88.2003 59.0957C88.0366 58.7144 87.7985 58.3696 87.5 58.0813L79.4188 50C79.1305 49.7016 78.7857 49.4635 78.4044 49.2997C78.0231 49.136 77.6131 49.0497 77.1981 49.0461C76.7832 49.0425 76.3717 49.1216 75.9877 49.2787C75.6036 49.4359 75.2547 49.6679 74.9613 49.9613C74.6679 50.2547 74.4358 50.6036 74.2787 50.9877C74.1216 51.3717 74.0425 51.7832 74.0461 52.1982C74.0497 52.6131 74.1359 53.0232 74.2997 53.4044C74.4635 53.7857 74.7015 54.1305 75 54.4188L83.0813 62.5ZM59.375 69.7313C59.375 70.5601 59.7043 71.3549 60.2903 71.941C60.8764 72.5271 61.6712 72.8563 62.5 72.8563C63.3288 72.8563 64.1237 72.5271 64.7097 71.941C65.2958 71.3549 65.625 70.5601 65.625 69.7313V58.3C65.625 57.4712 65.2958 56.6764 64.7097 56.0903C64.1237 55.5043 63.3288 55.175 62.5 55.175C61.6712 55.175 60.8764 55.5043 60.2903 56.0903C59.7043 56.6764 59.375 57.4712 59.375 58.3V69.7313ZM70.9625 37.875C71.5465 37.2893 71.8744 36.4959 71.8744 35.6688C71.8744 34.8417 71.5465 34.0483 70.9625 33.4625L66.5375 29.0375C65.9515 28.4517 65.1568 28.1226 64.3281 28.1226C63.4995 28.1226 62.7048 28.4517 62.1188 29.0375L54.0375 37.125C53.4517 37.7111 53.1226 38.5058 53.1226 39.3344C53.1226 40.1631 53.4517 40.9578 54.0375 41.5438L58.4625 45.9688C59.0485 46.5546 59.8433 46.8838 60.6719 46.8838C61.5005 46.8838 62.2952 46.5546 62.8813 45.9688L70.9625 37.8875V37.875ZM52.2125 56.625C52.7965 56.0393 53.1244 55.2459 53.1244 54.4188C53.1244 53.5917 52.7965 52.7983 52.2125 52.2125L47.7875 47.7875C47.2015 47.2017 46.4068 46.8726 45.5781 46.8726C44.7495 46.8726 43.9548 47.2017 43.3688 47.7875L4.03752 87.125C3.45167 87.7111 3.12256 88.5058 3.12256 89.3344C3.12256 90.1631 3.45167 90.9578 4.03752 91.5438L8.46252 95.9688C9.04854 96.5546 9.84325 96.8838 10.6719 96.8838C11.5005 96.8838 12.2952 96.5546 12.8813 95.9688L52.2125 56.625Z" fill="#0088FF"/>
</g>
<defs>
<clipPath id="clip0_9_1529">
<rect width="100" height="100" fill="white"/>
</clipPath>
</defs>
</svg>
