<svg width="100" height="100" viewBox="0 0 100 100" fill="none" xmlns="http://www.w3.org/2000/svg">
<g clip-path="url(#clip0_9_1535)">
<path d="M50 19.25C54.8402 19.25 59.4818 21.1732 62.9043 24.5957C66.3268 28.0182 68.25 32.6598 68.25 37.5C68.25 42.3402 66.3268 46.9818 62.9043 50.4043C59.4818 53.8268 54.8402 55.75 50 55.75C45.1598 55.75 40.5182 53.8268 37.0957 50.4043C33.6732 46.9818 31.75 42.3402 31.75 37.5C31.75 32.6598 33.6732 28.0182 37.0957 24.5957C40.5182 21.1732 45.1598 19.25 50 19.25Z" fill="#0088FF" stroke="#0088FF"/>
<path fill-rule="evenodd" clip-rule="evenodd" d="M0 50C0 36.7392 5.26784 24.0215 14.6447 14.6447C24.0215 5.26784 36.7392 0 50 0C63.2608 0 75.9785 5.26784 85.3553 14.6447C94.7322 24.0215 100 36.7392 100 50C100 63.2608 94.7322 75.9785 85.3553 85.3553C75.9785 94.7322 63.2608 100 50 100C36.7392 100 24.0215 94.7322 14.6447 85.3553C5.26784 75.9785 0 63.2608 0 50ZM50 6.25C41.7611 6.25044 33.6898 8.57727 26.715 12.9627C19.7402 17.3481 14.1455 23.6138 10.5748 31.0387C7.00403 38.4636 5.60242 46.7459 6.53124 54.9322C7.46006 63.1186 10.6816 70.8763 15.825 77.3125C20.2625 70.1625 30.0312 62.5 50 62.5C69.9688 62.5 79.7313 70.1562 84.175 77.3125C89.3184 70.8763 92.5399 63.1186 93.4688 54.9322C94.3976 46.7459 92.996 38.4636 89.4252 31.0387C85.8545 23.6138 80.2598 17.3481 73.285 12.9627C66.3102 8.57727 58.2389 6.25044 50 6.25Z" fill="#0088FF"/>
</g>
<defs>
<clipPath id="clip0_9_1535">
<rect width="100" height="100" fill="white"/>
</clipPath>
</defs>
</svg>
